<?xml version="1.0" encoding="utf-8"?>
<!-- Generator: Adobe Illustrator 24.0.3, SVG Export Plug-In . SVG Version: 6.00 Build 0)  -->
<svg version="1.1" id="图层_1" xmlns="http://www.w3.org/2000/svg" xmlns:xlink="http://www.w3.org/1999/xlink" x="0px" y="0px"
	 viewBox="0 0 144 34" style="enable-background:new 0 0 144 34;" xml:space="preserve">
<g>
	<path d="M39.9,19.2h-9.2c-0.4,0-0.7,0.3-0.7,0.7c0,0.4,0.3,0.8,0.7,0.8h8.5v7.4c-1.3,1.3-3,2.4-5,3.2c-2,0.7-3.9,1.1-5.8,1.1
		c-2.7,0-5.3-0.7-7.7-2.2c-2.2-1.3-4-3.2-5.4-5.5c-1.4-2.3-2.1-4.9-2.1-7.7c0-2.9,0.7-5.6,2.2-7.9c1.2-2.1,3.1-4.1,5.5-5.5
		c2.4-1.4,4.9-2.1,7.7-2.1c2,0,3.9,0.4,5.8,1.2c1.9,0.8,3.5,1.9,5.1,3.4c0.2,0.2,0.4,0.2,0.5,0.2c0.3,0,0.5-0.2,0.6-0.3l0-0.1
		c0.2-0.3,0.1-0.5-0.1-0.8c-3.2-3.2-7.4-5-11.8-5c-3,0-5.8,0.8-8.5,2.3c-2.5,1.4-4.6,3.6-6,6.1c-1.5,2.6-2.2,5.4-2.2,8.4
		c0,4.5,1.7,8.6,4.9,11.8c3,3.1,7.2,4.9,11.7,4.9c4.6,0,8.8-1.7,12-4.8c0.3-0.2,0.3-0.5,0.3-0.7v-8.3C40.8,19.7,40.6,19.2,39.9,19.2
		z"/>
	<path d="M58.5,9.7c0-0.4-0.3-0.8-0.8-0.8h-0.3c-3.4,0-6.5,1.3-9,3.8c-2.3,2.3-3.7,5.7-3.7,9v10.9c0,0.4,0.3,0.8,0.8,0.8
		c0.4,0,0.6-0.3,0.6-0.8V21.8c0-3,1.2-5.8,3.3-8.1c2.1-2.1,5-3.3,7.9-3.3h0.3C58.2,10.4,58.5,10.1,58.5,9.7z"/>
	<path d="M69.8,9c-3.2,0-6.3,1.3-8.6,3.6c-2.3,2.4-3.6,5.6-3.6,8.8c0,3.4,1.2,6.4,3.6,8.8c2.3,2.4,5.3,3.7,8.6,3.7
		c2.7,0,5.4-0.9,7.5-2.6c1.3-1.1,2.4-2.4,3.2-3.9v5.5c0,0.7,0.5,0.8,0.6,0.8c0.4,0,0.8-0.3,0.8-0.8V21.3c0-3.4-1.2-6.5-3.5-8.8
		C76.1,10.2,73,9,69.8,9z M80.5,21.4c0,2.9-1.1,5.7-3,7.7c-2,2.1-4.7,3.2-7.7,3.2c-2.9,0-5.6-1.1-7.6-3.2c-1.9-2-3-4.8-3-7.7
		c0-2.9,1.1-5.7,3-7.8c2-2.1,4.7-3.2,7.6-3.2c2.9,0,5.6,1.1,7.7,3.2C79.4,15.5,80.5,18.4,80.5,21.4z"/>
	<path d="M104.2,29.2c-0.1,0-0.3,0-0.5,0.1l-0.1,0c-0.6,0.6-1.2,1.1-2.1,1.6c-1.5,0.9-3.2,1.3-5.1,1.3c-2.9,0-5.6-1.1-7.7-3.2
		c-2-2.1-3-4.8-3-7.7c0-2.9,1.1-5.6,3.1-7.6c2.1-2.1,4.8-3.2,7.5-3.2c2,0,3.7,0.4,5.1,1.3c1,0.5,1.6,1,2,1.6
		c0.2,0.2,0.4,0.2,0.6,0.2c0.3,0,0.5-0.2,0.6-0.3l0-0.1c0.2-0.3,0.1-0.7-0.2-0.8c-1-1-2.2-1.8-3.8-2.4c-5-1.8-10-0.5-13.2,3
		c-2.2,2.4-3.4,5.5-3.4,8.9c0,3.2,1.3,6.3,3.6,8.6c2.3,2.3,5.4,3.6,8.5,3.6c1.5,0,3-0.3,4.5-0.8c1.5-0.6,2.7-1.4,3.7-2.4
		c0.1-0.1,0.2-0.3,0.2-0.4c0.1-0.2,0.3-0.5,0.1-0.8C104.6,29.4,104.5,29.2,104.2,29.2z"/>
	<path d="M127.4,12.6c-2.3-2.3-5.5-3.7-8.8-3.7c-3.3,0-6.4,1.3-8.7,3.7c-2.3,2.3-3.6,5.4-3.6,8.8c0,3.2,1.3,6.4,3.6,8.8
		c2.3,2.3,5.4,3.6,8.7,3.6c1.6,0,2.6-0.1,3.5-0.4c0.9-0.2,1.9-0.6,3-1.2c0.2-0.1,0.4-0.3,0.4-0.6c0-0.7-0.5-0.8-0.7-0.8
		c-0.1,0-0.3,0-0.5,0.1c-1,0.6-1.9,1-2.6,1.2c-0.9,0.2-1.9,0.3-2.9,0.3c-2.9,0-5.6-1.1-7.6-3.1c-2-2-3.1-4.4-3.2-7.1h22.6
		c0.4,0,0.7-0.3,0.7-0.8C131,18.1,129.7,15,127.4,12.6z M129.6,20.7h-22c0.2-2.6,1.3-5.1,3.2-7.2c2-2,4.8-3.1,7.7-3.1
		c2.8,0,5.6,1.1,7.7,3.1C128.2,15.4,129.4,17.9,129.6,20.7z"/>
</g>
</svg>
